<svg id="그룹_1477" data-name="그룹 1477" xmlns="http://www.w3.org/2000/svg" width="26.642" height="23.604" viewBox="0 0 26.642 23.604">
  <path id="패스_2240" data-name="패스 2240" d="M1445.1,431.427h-20.847a2.9,2.9,0,0,1-2.9-2.9V413.918a2.9,2.9,0,0,1,2.9-2.9h3.254l1.514-2.648a1.09,1.09,0,0,1,.947-.55h9.416a1.09,1.09,0,0,1,.947.55l1.515,2.648h3.255a2.9,2.9,0,0,1,2.9,2.9V428.53A2.9,2.9,0,0,1,1445.1,431.427ZM1424.252,413.2a.718.718,0,0,0-.717.716V428.53a.718.718,0,0,0,.717.716H1445.1a.717.717,0,0,0,.716-.716V413.918a.717.717,0,0,0-.716-.716h-3.887a1.089,1.089,0,0,1-.947-.55L1438.75,410H1430.6l-1.514,2.648a1.088,1.088,0,0,1-.946.55Z" transform="translate(-1421.354 -407.823)" fill="#afbbc3"/>
  <path id="패스_2241" data-name="패스 2241" d="M1437.4,429.618a6.052,6.052,0,1,1,6.052-6.051A6.058,6.058,0,0,1,1437.4,429.618Zm0-9.922a3.871,3.871,0,1,0,3.87,3.871A3.874,3.874,0,0,0,1437.4,419.7Z" transform="translate(-1424.084 -410.469)" fill="#afbbc3"/>
</svg>
